M48
; DRILL file {KiCad 9.0.6} date 2026-02-16T22:18:08-0500
; FORMAT={-:-/ absolute / metric / decimal}
; #@! TF.CreationDate,2026-02-16T22:18:08-05:00
; #@! TF.GenerationSoftware,Kicad,Pcbnew,9.0.6
; #@! TF.FileFunction,Plated,1,2,PTH
FMAT,2
METRIC
; #@! TA.AperFunction,Plated,PTH,ViaDrill
T1C0.300
; #@! TA.AperFunction,Plated,PTH,ComponentDrill
T2C0.800
; #@! TA.AperFunction,Plated,PTH,ComponentDrill
T3C1.000
; #@! TA.AperFunction,Plated,PTH,ComponentDrill
T4C1.500
%
G90
G05
T1
X60.31Y-85.39
X64.67Y-58.84
X64.89Y-66.34
X65.27Y-52.33
X67.35Y-60.95
X68.2Y-64.54
X68.76Y-84.92
X69.95Y-60.35
X72.16Y-61.55
X73.21Y-58.66
X74.74Y-62.15
X74.99Y-59.28
X79.65Y-59.28
X81.98Y-58.87
X83.62Y-54.35
X87.55Y-62.15
X87.71Y-70.4
X88.0Y-84.32
X89.2Y-83.36
X90.1Y-61.55
X90.36Y-82.72
X91.2Y-84.1
X92.12Y-60.33
X93.63Y-84.56
X94.83Y-60.59
X96.28Y-65.28
X98.06Y-68.63
X98.95Y-84.1
X103.46Y-66.1
X103.98Y-57.74
X105.25Y-52.12
X106.96Y-62.28
X106.991Y-63.121
X107.63Y-70.79
X108.37Y-59.08
X108.39Y-65.76
X109.37Y-62.44
X110.118Y-62.76
X113.27Y-59.06
X113.54Y-70.77
X114.35Y-65.81
X114.53Y-69.77
X116.06Y-79.37
X116.64Y-57.15
X125.27Y-83.78
X131.82Y-84.41
X133.02Y-83.23
X137.95Y-69.9
X138.01Y-75.29
X138.7Y-77.37
X142.74Y-63.15
X145.47Y-61.57
X145.47Y-85.59
X145.919Y-55.569
X146.06Y-58.87
T2
X104.408Y-70.36
X112.028Y-70.36
X120.85Y-72.51
X120.85Y-80.13
X125.765Y-72.51
X125.765Y-75.05
X125.765Y-77.59
X125.765Y-80.13
X133.385Y-72.51
X133.385Y-75.05
X133.385Y-77.59
X133.385Y-80.13
X138.06Y-72.51
X138.06Y-80.13
X140.982Y-53.59
X142.982Y-53.59
X143.14Y-72.51
X143.14Y-80.13
X144.982Y-53.59
T3
X53.2Y-60.16
X55.7Y-65.16
X58.2Y-60.16
X59.39Y-76.63
X59.39Y-79.17
X61.93Y-76.63
X61.93Y-79.17
X62.32Y-56.62
X64.47Y-76.63
X64.47Y-79.17
X64.86Y-56.62
X67.01Y-76.63
X67.01Y-79.17
X67.4Y-56.62
X69.55Y-76.63
X69.55Y-79.17
X69.94Y-56.62
X72.09Y-76.63
X72.09Y-79.17
X72.48Y-56.62
X74.63Y-76.63
X74.63Y-79.17
X75.02Y-56.62
X77.17Y-76.63
X77.17Y-79.17
X77.56Y-56.62
X79.71Y-76.63
X79.71Y-79.17
X80.1Y-56.62
X82.25Y-76.63
X82.25Y-79.17
X82.64Y-56.62
X84.79Y-76.63
X84.79Y-79.17
X85.18Y-56.62
X87.33Y-76.63
X87.33Y-79.17
X87.72Y-56.62
X89.87Y-76.63
X89.87Y-79.17
X90.26Y-56.62
X92.41Y-76.63
X92.41Y-79.17
X92.8Y-56.62
X94.95Y-76.63
X94.95Y-79.17
X95.34Y-56.62
X97.49Y-76.63
X97.49Y-79.17
X97.88Y-56.62
X100.03Y-76.63
X100.03Y-79.17
X100.42Y-56.62
X102.57Y-76.63
X102.57Y-79.17
X105.11Y-76.63
X105.11Y-79.17
X107.65Y-76.63
X107.65Y-79.17
X122.57Y-67.145
X125.11Y-67.145
X126.96Y-132.07
X126.96Y-146.57
X127.65Y-67.145
X129.46Y-146.57
X130.19Y-67.145
X131.96Y-132.07
X131.96Y-146.57
X132.73Y-67.145
X135.27Y-67.145
X137.81Y-67.145
X140.35Y-67.145
X142.89Y-67.145
X149.24Y-53.81
X149.24Y-56.35
X149.24Y-58.89
X149.24Y-61.43
X149.24Y-63.97
X149.24Y-66.51
T4
X68.63Y-136.53
X74.98Y-133.99
X87.63Y-136.53
X93.98Y-133.99
T2
G00X115.13Y-61.22
M15
G01X115.13Y-60.52
M16
G05
G00X117.63Y-61.22
M15
G01X117.63Y-60.52
M16
G05
G00X119.78Y-55.87
M15
G01X120.48Y-55.87
M16
G05
G00X122.63Y-61.22
M15
G01X122.63Y-60.52
M16
G05
G00X125.13Y-61.22
M15
G01X125.13Y-60.52
M16
G05
G00X138.832Y-53.24
M15
G01X138.832Y-53.94
M16
G05
G00X147.132Y-53.24
M15
G01X147.132Y-53.94
M16
G05
T3
G00X127.763Y-59.37
M15
G01X127.763Y-61.37
M16
G05
G00X133.463Y-57.37
M15
G01X131.463Y-57.37
M16
G05
G00X133.463Y-63.37
M15
G01X131.463Y-63.37
M16
G05
T4
G00X123.86Y-139.72
M15
G01X123.86Y-138.42
M16
G05
G00X135.06Y-139.72
M15
G01X135.06Y-138.42
M16
G05
M30
