%TF.GenerationSoftware,KiCad,Pcbnew,9.0.6*%
%TF.CreationDate,2026-02-16T22:18:04-05:00*%
%TF.ProjectId,MT32-pi-mainboard,4d543332-2d70-4692-9d6d-61696e626f61,rev?*%
%TF.SameCoordinates,Original*%
%TF.FileFunction,Soldermask,Bot*%
%TF.FilePolarity,Negative*%
%FSLAX46Y46*%
G04 Gerber Fmt 4.6, Leading zero omitted, Abs format (unit mm)*
G04 Created by KiCad (PCBNEW 9.0.6) date 2026-02-16 22:18:04*
%MOMM*%
%LPD*%
G01*
G04 APERTURE LIST*
G04 Aperture macros list*
%AMRoundRect*
0 Rectangle with rounded corners*
0 $1 Rounding radius*
0 $2 $3 $4 $5 $6 $7 $8 $9 X,Y pos of 4 corners*
0 Add a 4 corners polygon primitive as box body*
4,1,4,$2,$3,$4,$5,$6,$7,$8,$9,$2,$3,0*
0 Add four circle primitives for the rounded corners*
1,1,$1+$1,$2,$3*
1,1,$1+$1,$4,$5*
1,1,$1+$1,$6,$7*
1,1,$1+$1,$8,$9*
0 Add four rect primitives between the rounded corners*
20,1,$1+$1,$2,$3,$4,$5,0*
20,1,$1+$1,$4,$5,$6,$7,0*
20,1,$1+$1,$6,$7,$8,$9,0*
20,1,$1+$1,$8,$9,$2,$3,0*%
G04 Aperture macros list end*
%ADD10C,2.600000*%
%ADD11R,1.700000X1.700000*%
%ADD12C,1.700000*%
%ADD13RoundRect,0.250000X0.550000X0.550000X-0.550000X0.550000X-0.550000X-0.550000X0.550000X-0.550000X0*%
%ADD14C,1.600000*%
%ADD15R,2.000000X3.200000*%
%ADD16R,2.000000X2.000000*%
%ADD17C,2.000000*%
%ADD18C,3.500000*%
%ADD19R,3.500000X2.000000*%
%ADD20RoundRect,0.750000X-1.000000X0.750000X-1.000000X-0.750000X1.000000X-0.750000X1.000000X0.750000X0*%
%ADD21RoundRect,0.500000X-0.500000X1.250000X-0.500000X-1.250000X0.500000X-1.250000X0.500000X1.250000X0*%
%ADD22C,4.000000*%
%ADD23C,2.200000*%
%ADD24R,1.560000X1.560000*%
%ADD25C,1.560000*%
%ADD26C,2.700000*%
%ADD27C,1.200000*%
%ADD28O,1.600000X2.300000*%
%ADD29O,2.300000X1.600000*%
%ADD30O,1.300000X2.000000*%
%ADD31C,1.300000*%
%ADD32RoundRect,0.250000X0.550000X-0.550000X0.550000X0.550000X-0.550000X0.550000X-0.550000X-0.550000X0*%
G04 APERTURE END LIST*
D10*
%TO.C,J1*%
X54520000Y-77900000D03*
X112520000Y-77900000D03*
X54520000Y-54900000D03*
X112520000Y-54900000D03*
D11*
X107650000Y-76630000D03*
D12*
X107650000Y-79170000D03*
X105110000Y-76630000D03*
X105110000Y-79170000D03*
X102570000Y-76630000D03*
X102570000Y-79170000D03*
X100030000Y-76630000D03*
X100030000Y-79170000D03*
X97490000Y-76630000D03*
X97490000Y-79170000D03*
X94950000Y-76630000D03*
X94950000Y-79170000D03*
X92410000Y-76630000D03*
X92410000Y-79170000D03*
X89870000Y-76630000D03*
X89870000Y-79170000D03*
X87330000Y-76630000D03*
X87330000Y-79170000D03*
X84790000Y-76630000D03*
X84790000Y-79170000D03*
X82250000Y-76630000D03*
X82250000Y-79170000D03*
X79710000Y-76630000D03*
X79710000Y-79170000D03*
X77170000Y-76630000D03*
X77170000Y-79170000D03*
X74630000Y-76630000D03*
X74630000Y-79170000D03*
X72090000Y-76630000D03*
X72090000Y-79170000D03*
X69550000Y-76630000D03*
X69550000Y-79170000D03*
X67010000Y-76630000D03*
X67010000Y-79170000D03*
X64470000Y-76630000D03*
X64470000Y-79170000D03*
X61930000Y-76630000D03*
X61930000Y-79170000D03*
X59390000Y-76630000D03*
X59390000Y-79170000D03*
%TD*%
D13*
%TO.C,U1*%
X133385000Y-72510000D03*
D14*
X133385000Y-75050000D03*
X133385000Y-77590000D03*
X133385000Y-80130000D03*
X125765000Y-80130000D03*
X125765000Y-77590000D03*
X125765000Y-75050000D03*
X125765000Y-72510000D03*
%TD*%
D15*
%TO.C,SW1*%
X123860000Y-139070000D03*
X135060000Y-139070000D03*
D16*
X126960000Y-146570000D03*
D17*
X131960000Y-146570000D03*
X129460000Y-146570000D03*
X131960000Y-132070000D03*
X126960000Y-132070000D03*
%TD*%
D18*
%TO.C,LCD1*%
X54520000Y-125360000D03*
X147520000Y-125360000D03*
X54520000Y-70360000D03*
X147520000Y-70360000D03*
%TD*%
D11*
%TO.C,J3*%
X62320000Y-56620000D03*
D12*
X64860000Y-56620000D03*
X67400000Y-56620000D03*
X69940000Y-56620000D03*
X72480000Y-56620000D03*
X75020000Y-56620000D03*
X77560000Y-56620000D03*
X80100000Y-56620000D03*
X82640000Y-56620000D03*
X85180000Y-56620000D03*
X87720000Y-56620000D03*
X90260000Y-56620000D03*
X92800000Y-56620000D03*
X95340000Y-56620000D03*
X97880000Y-56620000D03*
X100420000Y-56620000D03*
%TD*%
D19*
%TO.C,J4*%
X132463333Y-63170000D03*
D20*
X132463333Y-57370000D03*
D21*
X128163333Y-60370000D03*
%TD*%
D12*
%TO.C,SW2*%
X67360000Y-139070000D03*
D22*
X72440000Y-139070000D03*
D12*
X77520000Y-139070000D03*
D23*
X74980000Y-133990000D03*
X68630000Y-136530000D03*
%TD*%
D24*
%TO.C,RV1*%
X53200000Y-60160000D03*
D25*
X55700000Y-65160000D03*
X58200000Y-60160000D03*
%TD*%
D11*
%TO.C,A1*%
X149240000Y-66510000D03*
D12*
X149240000Y-63970000D03*
X149240000Y-61430000D03*
X149240000Y-58890000D03*
X149240000Y-56350000D03*
X149240000Y-53810000D03*
X122570000Y-67145000D03*
X125110000Y-67145000D03*
X127650000Y-67145000D03*
X130190000Y-67145000D03*
X132730000Y-67145000D03*
X135270000Y-67145000D03*
X137810000Y-67145000D03*
X140350000Y-67145000D03*
X142890000Y-67145000D03*
%TD*%
%TO.C,SW3*%
X86360000Y-139070000D03*
D22*
X91440000Y-139070000D03*
D12*
X96520000Y-139070000D03*
D23*
X93980000Y-133990000D03*
X87630000Y-136530000D03*
%TD*%
D26*
%TO.C,H2*%
X53970000Y-148370000D03*
%TD*%
D27*
%TO.C,J2*%
X125130000Y-53370000D03*
X115130000Y-53370000D03*
X125130000Y-55870000D03*
X115130000Y-55870000D03*
X120130000Y-60870000D03*
D28*
X125130000Y-60870000D03*
X122630000Y-60870000D03*
D29*
X120130000Y-55870000D03*
D28*
X115130000Y-60870000D03*
X117630000Y-60870000D03*
%TD*%
D30*
%TO.C,SW4*%
X138831667Y-53590000D03*
X147131667Y-53590000D03*
D31*
X144981667Y-53590000D03*
X142981667Y-53590000D03*
X140981667Y-53590000D03*
%TD*%
D26*
%TO.C,H3*%
X148040000Y-148370000D03*
%TD*%
D14*
%TO.C,R2*%
X120850000Y-72510000D03*
X120850000Y-80130000D03*
%TD*%
D32*
%TO.C,D1*%
X138060000Y-80130000D03*
D14*
X138060000Y-72510000D03*
%TD*%
%TO.C,R1*%
X143140000Y-72510000D03*
X143140000Y-80130000D03*
%TD*%
%TO.C,R3*%
X104408125Y-70360000D03*
X112028125Y-70360000D03*
%TD*%
M02*
